<?xml version="1.0" encoding="iso-8859-1"?>
<!-- Generator: Adobe Illustrator 19.1.1, SVG Export Plug-In . SVG Version: 6.00 Build 0)  -->
<svg version="1.1" id="Layer_1" xmlns="http://www.w3.org/2000/svg" xmlns:xlink="http://www.w3.org/1999/xlink" x="0px" y="0px"
	 viewBox="0 0 40 40" style="enable-background:new 0 0 40 40;" xml:space="preserve">
<g>
	<path style="fill:#FFEEA3;" d="M20,38.5C9.799,38.5,1.5,30.201,1.5,20S9.799,1.5,20,1.5S38.5,9.799,38.5,20S30.201,38.5,20,38.5z"
		/>
	<path style="fill:#C29653;" d="M20,2c9.925,0,18,8.075,18,18s-8.075,18-18,18S2,29.925,2,20S10.075,2,20,2 M20,1
		C9.507,1,1,9.507,1,20s8.507,19,19,19s19-8.507,19-19S30.493,1,20,1L20,1z"/>
</g>
<g>
	<path style="fill:#F78F8F;" d="M20,30.5c-6.157,0-8.563-4.921-9.272-6.86c1.64,0.281,5.474,0.86,9.272,0.86s7.632-0.579,9.272-0.86
		C28.563,25.579,26.157,30.5,20,30.5z"/>
	<path style="fill:#C74343;" d="M11.532,24.281C13.45,24.582,16.705,25,20,25c3.287,0,6.534-0.416,8.453-0.717
		C27.466,26.408,25.051,30,20,30C14.895,30,12.502,26.409,11.532,24.281 M30,23c0,0-5,1-10,1s-10-1-10-1s2,8,10,8S30,23,30,23L30,23
		z"/>
</g>
<path style="fill:none;stroke:#C29653;stroke-miterlimit:10;" d="M9.286,16.505c0,0,1.5-2,4-2s4,2,4,2"/>
<path style="fill:none;stroke:#C29653;stroke-miterlimit:10;" d="M22.786,16.505c0,0,1.5-2,4-2s4,2,4,2"/>
</svg>
